<svg width="48" height="48" viewBox="0 0 48 48" fill="none" xmlns="http://www.w3.org/2000/svg">
<path fill-rule="evenodd" clip-rule="evenodd" d="M0.400024 15.2H2.79999C2.90607 15.2 3.00781 15.2422 3.08282 15.3172C3.15784 15.3922 3.20001 15.4939 3.20001 15.6V16.4C3.20001 16.5061 3.15784 16.6078 3.08282 16.6828C3.00781 16.7578 2.90607 16.8 2.79999 16.8H0.400024C0.293938 16.8 0.192202 16.7578 0.117188 16.6828C0.0421729 16.6078 0 16.5061 0 16.4V15.6C0 15.4939 0.0421729 15.3922 0.117188 15.3172C0.192202 15.2422 0.293938 15.2 0.400024 15.2Z" fill="white"/>
<path fill-rule="evenodd" clip-rule="evenodd" d="M0.400024 11.2H2.79999C2.90607 11.2 3.00781 11.2422 3.08282 11.3172C3.15784 11.3922 3.20001 11.4939 3.20001 11.6V12.4C3.20001 12.5061 3.15784 12.6078 3.08282 12.6828C3.00781 12.7578 2.90607 12.8 2.79999 12.8H0.400024C0.293938 12.8 0.192202 12.7578 0.117188 12.6828C0.0421729 12.6078 0 12.5061 0 12.4V11.6C0 11.4939 0.0421729 11.3922 0.117188 11.3172C0.192202 11.2422 0.293938 11.2 0.400024 11.2Z" fill="white"/>
<path fill-rule="evenodd" clip-rule="evenodd" d="M0.400024 7.20001H2.79999C2.90607 7.20001 3.00781 7.24215 3.08282 7.31717C3.15784 7.39218 3.20001 7.49392 3.20001 7.60001V8.39999C3.20001 8.50608 3.15784 8.60782 3.08282 8.68283C3.00781 8.75785 2.90607 8.79999 2.79999 8.79999H0.400024C0.293938 8.79999 0.192202 8.75785 0.117188 8.68283C0.0421729 8.60782 0 8.50608 0 8.39999V7.60001C0 7.49392 0.0421729 7.39218 0.117188 7.31717C0.192202 7.24215 0.293938 7.20001 0.400024 7.20001Z" fill="white"/>
<path fill-rule="evenodd" clip-rule="evenodd" d="M0.400024 23.2H2.79999C2.90607 23.2 3.00781 23.2422 3.08282 23.3172C3.15784 23.3922 3.20001 23.4939 3.20001 23.6V24.4C3.20001 24.5061 3.15784 24.6078 3.08282 24.6828C3.00781 24.7578 2.90607 24.8 2.79999 24.8H0.400024C0.293938 24.8 0.192202 24.7578 0.117188 24.6828C0.0421729 24.6078 0 24.5061 0 24.4V23.6C0 23.4939 0.0421729 23.3922 0.117188 23.3172C0.192202 23.2422 0.293938 23.2 0.400024 23.2Z" fill="white"/>
<path fill-rule="evenodd" clip-rule="evenodd" d="M0.400024 19.2H2.79999C2.90607 19.2 3.00781 19.2422 3.08282 19.3172C3.15784 19.3922 3.20001 19.4939 3.20001 19.6V20.4C3.20001 20.5061 3.15784 20.6078 3.08282 20.6828C3.00781 20.7578 2.90607 20.8 2.79999 20.8H0.400024C0.293938 20.8 0.192202 20.7578 0.117188 20.6828C0.0421729 20.6078 0 20.5061 0 20.4V19.6C0 19.4939 0.0421729 19.3922 0.117188 19.3172C0.192202 19.2422 0.293938 19.2 0.400024 19.2Z" fill="white"/>
<path fill-rule="evenodd" clip-rule="evenodd" d="M0.400024 31.2H2.79999C2.90607 31.2 3.00781 31.2422 3.08282 31.3172C3.15784 31.3922 3.20001 31.4939 3.20001 31.6V32.4C3.20001 32.5061 3.15784 32.6078 3.08282 32.6828C3.00781 32.7578 2.90607 32.8 2.79999 32.8H0.400024C0.293938 32.8 0.192202 32.7578 0.117188 32.6828C0.0421729 32.6078 0 32.5061 0 32.4V31.6C0 31.4939 0.0421729 31.3922 0.117188 31.3172C0.192202 31.2422 0.293938 31.2 0.400024 31.2Z" fill="white"/>
<path fill-rule="evenodd" clip-rule="evenodd" d="M0.400024 27.2H2.79999C2.90607 27.2 3.00781 27.2422 3.08282 27.3172C3.15784 27.3922 3.20001 27.4939 3.20001 27.6V28.4C3.20001 28.5061 3.15784 28.6078 3.08282 28.6828C3.00781 28.7578 2.90607 28.8 2.79999 28.8H0.400024C0.293938 28.8 0.192202 28.7578 0.117188 28.6828C0.0421729 28.6078 0 28.5061 0 28.4V27.6C0 27.4939 0.0421729 27.3922 0.117188 27.3172C0.192202 27.2422 0.293938 27.2 0.400024 27.2Z" fill="white"/>
<path fill-rule="evenodd" clip-rule="evenodd" d="M0.400024 23.2H2.79999C2.90607 23.2 3.00781 23.2422 3.08282 23.3172C3.15784 23.3922 3.20001 23.4939 3.20001 23.6V24.4C3.20001 24.5061 3.15784 24.6078 3.08282 24.6828C3.00781 24.7578 2.90607 24.8 2.79999 24.8H0.400024C0.293938 24.8 0.192202 24.7578 0.117188 24.6828C0.0421729 24.6078 0 24.5061 0 24.4V23.6C0 23.4939 0.0421729 23.3922 0.117188 23.3172C0.192202 23.2422 0.293938 23.2 0.400024 23.2Z" fill="white"/>
<path fill-rule="evenodd" clip-rule="evenodd" d="M0.400024 39.2H2.79999C2.90607 39.2 3.00781 39.2422 3.08282 39.3172C3.15784 39.3922 3.20001 39.4939 3.20001 39.6V40.4C3.20001 40.5061 3.15784 40.6078 3.08282 40.6828C3.00781 40.7578 2.90607 40.8 2.79999 40.8H0.400024C0.293938 40.8 0.192202 40.7578 0.117188 40.6828C0.0421729 40.6078 0 40.5061 0 40.4V39.6C0 39.4939 0.0421729 39.3922 0.117188 39.3172C0.192202 39.2422 0.293938 39.2 0.400024 39.2Z" fill="white"/>
<path fill-rule="evenodd" clip-rule="evenodd" d="M0.400024 35.2H2.79999C2.90607 35.2 3.00781 35.2422 3.08282 35.3172C3.15784 35.3922 3.20001 35.4939 3.20001 35.6V36.4C3.20001 36.5061 3.15784 36.6078 3.08282 36.6828C3.00781 36.7578 2.90607 36.8 2.79999 36.8H0.400024C0.293938 36.8 0.192202 36.7578 0.117188 36.6828C0.0421729 36.6078 0 36.5061 0 36.4V35.6C0 35.4939 0.0421729 35.3922 0.117188 35.3172C0.192202 35.2422 0.293938 35.2 0.400024 35.2Z" fill="white"/>
<path fill-rule="evenodd" clip-rule="evenodd" d="M45.2008 31.2H47.6008C47.7069 31.2 47.8086 31.2422 47.8836 31.3172C47.9586 31.3922 48.0008 31.4939 48.0008 31.6V32.4C48.0008 32.5061 47.9586 32.6078 47.8836 32.6828C47.8086 32.7578 47.7069 32.8 47.6008 32.8H45.2008C45.0947 32.8 44.993 32.7578 44.918 32.6828C44.843 32.6078 44.8008 32.5061 44.8008 32.4V31.6C44.8008 31.4939 44.843 31.3922 44.918 31.3172C44.993 31.2422 45.0947 31.2 45.2008 31.2Z" fill="white"/>
<path fill-rule="evenodd" clip-rule="evenodd" d="M45.2008 27.2H47.6008C47.7069 27.2 47.8086 27.2422 47.8836 27.3172C47.9586 27.3922 48.0008 27.4939 48.0008 27.6V28.4C48.0008 28.5061 47.9586 28.6078 47.8836 28.6828C47.8086 28.7578 47.7069 28.8 47.6008 28.8H45.2008C45.0947 28.8 44.993 28.7578 44.918 28.6828C44.843 28.6078 44.8008 28.5061 44.8008 28.4V27.6C44.8008 27.4939 44.843 27.3922 44.918 27.3172C44.993 27.2422 45.0947 27.2 45.2008 27.2Z" fill="white"/>
<path fill-rule="evenodd" clip-rule="evenodd" d="M45.2008 23.2H47.6008C47.7069 23.2 47.8086 23.2422 47.8836 23.3172C47.9586 23.3922 48.0008 23.4939 48.0008 23.6V24.4C48.0008 24.5061 47.9586 24.6078 47.8836 24.6828C47.8086 24.7578 47.7069 24.8 47.6008 24.8H45.2008C45.0947 24.8 44.993 24.7578 44.918 24.6828C44.843 24.6078 44.8008 24.5061 44.8008 24.4V23.6C44.8008 23.4939 44.843 23.3922 44.918 23.3172C44.993 23.2422 45.0947 23.2 45.2008 23.2Z" fill="white"/>
<path fill-rule="evenodd" clip-rule="evenodd" d="M45.2008 39.2H47.6008C47.7069 39.2 47.8086 39.2422 47.8836 39.3172C47.9586 39.3922 48.0008 39.4939 48.0008 39.6V40.4C48.0008 40.5061 47.9586 40.6078 47.8836 40.6828C47.8086 40.7578 47.7069 40.8 47.6008 40.8H45.2008C45.0947 40.8 44.993 40.7578 44.918 40.6828C44.843 40.6078 44.8008 40.5061 44.8008 40.4V39.6C44.8008 39.4939 44.843 39.3922 44.918 39.3172C44.993 39.2422 45.0947 39.2 45.2008 39.2Z" fill="white"/>
<path fill-rule="evenodd" clip-rule="evenodd" d="M45.2008 35.2H47.6008C47.7069 35.2 47.8086 35.2422 47.8836 35.3172C47.9586 35.3922 48.0008 35.4939 48.0008 35.6V36.4C48.0008 36.5061 47.9586 36.6078 47.8836 36.6828C47.8086 36.7578 47.7069 36.8 47.6008 36.8H45.2008C45.0947 36.8 44.993 36.7578 44.918 36.6828C44.843 36.6078 44.8008 36.5061 44.8008 36.4V35.6C44.8008 35.4939 44.843 35.3922 44.918 35.3172C44.993 35.2422 45.0947 35.2 45.2008 35.2Z" fill="white"/>
<path fill-rule="evenodd" clip-rule="evenodd" d="M45.2008 15.2H47.6008C47.7069 15.2 47.8086 15.2422 47.8836 15.3172C47.9586 15.3922 48.0008 15.4939 48.0008 15.6V16.4C48.0008 16.5061 47.9586 16.6078 47.8836 16.6828C47.8086 16.7578 47.7069 16.8 47.6008 16.8H45.2008C45.0947 16.8 44.993 16.7578 44.918 16.6828C44.843 16.6078 44.8008 16.5061 44.8008 16.4V15.6C44.8008 15.4939 44.843 15.3922 44.918 15.3172C44.993 15.2422 45.0947 15.2 45.2008 15.2Z" fill="white"/>
<path fill-rule="evenodd" clip-rule="evenodd" d="M45.2008 11.2H47.6008C47.7069 11.2 47.8086 11.2422 47.8836 11.3172C47.9586 11.3922 48.0008 11.4939 48.0008 11.6V12.4C48.0008 12.5061 47.9586 12.6078 47.8836 12.6828C47.8086 12.7578 47.7069 12.8 47.6008 12.8H45.2008C45.0947 12.8 44.993 12.7578 44.918 12.6828C44.843 12.6078 44.8008 12.5061 44.8008 12.4V11.6C44.8008 11.4939 44.843 11.3922 44.918 11.3172C44.993 11.2422 45.0947 11.2 45.2008 11.2Z" fill="white"/>
<path fill-rule="evenodd" clip-rule="evenodd" d="M45.2008 7.20001H47.6008C47.7069 7.20001 47.8086 7.24215 47.8836 7.31717C47.9586 7.39218 48.0008 7.49392 48.0008 7.60001V8.39999C48.0008 8.50608 47.9586 8.60782 47.8836 8.68283C47.8086 8.75785 47.7069 8.79999 47.6008 8.79999H45.2008C45.0947 8.79999 44.993 8.75785 44.918 8.68283C44.843 8.60782 44.8008 8.50608 44.8008 8.39999V7.60001C44.8008 7.49392 44.843 7.39218 44.918 7.31717C44.993 7.24215 45.0947 7.20001 45.2008 7.20001Z" fill="white"/>
<path fill-rule="evenodd" clip-rule="evenodd" d="M45.2008 23.2H47.6008C47.7069 23.2 47.8086 23.2422 47.8836 23.3172C47.9586 23.3922 48.0008 23.4939 48.0008 23.6V24.4C48.0008 24.5061 47.9586 24.6078 47.8836 24.6828C47.8086 24.7578 47.7069 24.8 47.6008 24.8H45.2008C45.0947 24.8 44.993 24.7578 44.918 24.6828C44.843 24.6078 44.8008 24.5061 44.8008 24.4V23.6C44.8008 23.4939 44.843 23.3922 44.918 23.3172C44.993 23.2422 45.0947 23.2 45.2008 23.2Z" fill="white"/>
<path fill-rule="evenodd" clip-rule="evenodd" d="M45.2008 19.2H47.6008C47.7069 19.2 47.8086 19.2422 47.8836 19.3172C47.9586 19.3922 48.0008 19.4939 48.0008 19.6V20.4C48.0008 20.5061 47.9586 20.6078 47.8836 20.6828C47.8086 20.7578 47.7069 20.8 47.6008 20.8H45.2008C45.0947 20.8 44.993 20.7578 44.918 20.6828C44.843 20.6078 44.8008 20.5061 44.8008 20.4V19.6C44.8008 19.4939 44.843 19.3922 44.918 19.3172C44.993 19.2422 45.0947 19.2 45.2008 19.2Z" fill="white"/>
<path fill-rule="evenodd" clip-rule="evenodd" d="M15.5992 44.8H16.3992C16.5053 44.8 16.6071 44.8421 16.6821 44.9171C16.7571 44.9922 16.7992 45.0939 16.7992 45.2V47.6C16.7992 47.7061 16.7571 47.8078 16.6821 47.8828C16.6071 47.9579 16.5053 48 16.3992 48H15.5992C15.4931 48 15.3914 47.9579 15.3163 47.8828C15.2413 47.8078 15.1992 47.7061 15.1992 47.6V45.2C15.1992 45.0939 15.2413 44.9922 15.3163 44.9171C15.3914 44.8421 15.4931 44.8 15.5992 44.8Z" fill="white"/>
<path fill-rule="evenodd" clip-rule="evenodd" d="M19.5992 44.8H20.3992C20.5053 44.8 20.6071 44.8421 20.6821 44.9171C20.7571 44.9922 20.7992 45.0939 20.7992 45.2V47.6C20.7992 47.7061 20.7571 47.8078 20.6821 47.8828C20.6071 47.9579 20.5053 48 20.3992 48H19.5992C19.4931 48 19.3914 47.9579 19.3163 47.8828C19.2413 47.8078 19.1992 47.7061 19.1992 47.6V45.2C19.1992 45.0939 19.2413 44.9922 19.3163 44.9171C19.3914 44.8421 19.4931 44.8 19.5992 44.8Z" fill="white"/>
<path fill-rule="evenodd" clip-rule="evenodd" d="M23.5992 44.8H24.3992C24.5053 44.8 24.6071 44.8421 24.6821 44.9171C24.7571 44.9922 24.7992 45.0939 24.7992 45.2V47.6C24.7992 47.7061 24.7571 47.8078 24.6821 47.8828C24.6071 47.9579 24.5053 48 24.3992 48H23.5992C23.4931 48 23.3914 47.9579 23.3163 47.8828C23.2413 47.8078 23.1992 47.7061 23.1992 47.6V45.2C23.1992 45.0939 23.2413 44.9922 23.3163 44.9171C23.3914 44.8421 23.4931 44.8 23.5992 44.8Z" fill="white"/>
<path fill-rule="evenodd" clip-rule="evenodd" d="M7.59918 44.8H8.39923C8.50532 44.8 8.60705 44.8421 8.68207 44.9171C8.75708 44.9922 8.79919 45.0939 8.79919 45.2V47.6C8.79919 47.7061 8.75708 47.8078 8.68207 47.8828C8.60705 47.9579 8.50532 48 8.39923 48H7.59918C7.4931 48 7.39136 47.9579 7.31635 47.8828C7.24133 47.8078 7.19922 47.7061 7.19922 47.6V45.2C7.19922 45.0939 7.24133 44.9922 7.31635 44.9171C7.39136 44.8421 7.4931 44.8 7.59918 44.8Z" fill="white"/>
<path fill-rule="evenodd" clip-rule="evenodd" d="M11.5992 44.8H12.3992C12.5053 44.8 12.6071 44.8421 12.6821 44.9171C12.7571 44.9922 12.7992 45.0939 12.7992 45.2V47.6C12.7992 47.7061 12.7571 47.8078 12.6821 47.8828C12.6071 47.9579 12.5053 48 12.3992 48H11.5992C11.4931 48 11.3914 47.9579 11.3163 47.8828C11.2413 47.8078 11.1992 47.7061 11.1992 47.6V45.2C11.1992 45.0939 11.2413 44.9922 11.3163 44.9171C11.3914 44.8421 11.4931 44.8 11.5992 44.8Z" fill="white"/>
<path fill-rule="evenodd" clip-rule="evenodd" d="M31.5992 44.8H32.3992C32.5053 44.8 32.6071 44.8421 32.6821 44.9171C32.7571 44.9922 32.7992 45.0939 32.7992 45.2V47.6C32.7992 47.7061 32.7571 47.8078 32.6821 47.8828C32.6071 47.9579 32.5053 48 32.3992 48H31.5992C31.4931 48 31.3914 47.9579 31.3163 47.8828C31.2413 47.8078 31.1992 47.7061 31.1992 47.6V45.2C31.1992 45.0939 31.2413 44.9922 31.3163 44.9171C31.3914 44.8421 31.4931 44.8 31.5992 44.8Z" fill="white"/>
<path fill-rule="evenodd" clip-rule="evenodd" d="M35.5992 44.8H36.3992C36.5053 44.8 36.6071 44.8421 36.6821 44.9171C36.7571 44.9922 36.7992 45.0939 36.7992 45.2V47.6C36.7992 47.7061 36.7571 47.8078 36.6821 47.8828C36.6071 47.9579 36.5053 48 36.3992 48H35.5992C35.4931 48 35.3914 47.9579 35.3163 47.8828C35.2413 47.8078 35.1992 47.7061 35.1992 47.6V45.2C35.1992 45.0939 35.2413 44.9922 35.3163 44.9171C35.3914 44.8421 35.4931 44.8 35.5992 44.8Z" fill="white"/>
<path fill-rule="evenodd" clip-rule="evenodd" d="M39.5992 44.8H40.3992C40.5053 44.8 40.6071 44.8421 40.6821 44.9171C40.7571 44.9922 40.7992 45.0939 40.7992 45.2V47.6C40.7992 47.7061 40.7571 47.8078 40.6821 47.8828C40.6071 47.9579 40.5053 48 40.3992 48H39.5992C39.4931 48 39.3914 47.9579 39.3163 47.8828C39.2413 47.8078 39.1992 47.7061 39.1992 47.6V45.2C39.1992 45.0939 39.2413 44.9922 39.3163 44.9171C39.3914 44.8421 39.4931 44.8 39.5992 44.8Z" fill="white"/>
<path fill-rule="evenodd" clip-rule="evenodd" d="M23.5992 44.8H24.3992C24.5053 44.8 24.6071 44.8421 24.6821 44.9171C24.7571 44.9922 24.7992 45.0939 24.7992 45.2V47.6C24.7992 47.7061 24.7571 47.8078 24.6821 47.8828C24.6071 47.9579 24.5053 48 24.3992 48H23.5992C23.4931 48 23.3914 47.9579 23.3163 47.8828C23.2413 47.8078 23.1992 47.7061 23.1992 47.6V45.2C23.1992 45.0939 23.2413 44.9922 23.3163 44.9171C23.3914 44.8421 23.4931 44.8 23.5992 44.8Z" fill="white"/>
<path fill-rule="evenodd" clip-rule="evenodd" d="M27.5992 44.8H28.3992C28.5053 44.8 28.6071 44.8421 28.6821 44.9171C28.7571 44.9922 28.7992 45.0939 28.7992 45.2V47.6C28.7992 47.7061 28.7571 47.8078 28.6821 47.8828C28.6071 47.9579 28.5053 48 28.3992 48H27.5992C27.4931 48 27.3914 47.9579 27.3163 47.8828C27.2413 47.8078 27.1992 47.7061 27.1992 47.6V45.2C27.1992 45.0939 27.2413 44.9922 27.3163 44.9171C27.3914 44.8421 27.4931 44.8 27.5992 44.8Z" fill="white"/>
<path fill-rule="evenodd" clip-rule="evenodd" d="M15.5992 0H16.3992C16.5053 0 16.6071 0.0421424 16.6821 0.117157C16.7571 0.192172 16.7992 0.293907 16.7992 0.399994V2.79999C16.7992 2.90607 16.7571 3.00784 16.6821 3.08286C16.6071 3.15787 16.5053 3.20001 16.3992 3.20001H15.5992C15.4931 3.20001 15.3914 3.15787 15.3163 3.08286C15.2413 3.00784 15.1992 2.90607 15.1992 2.79999V0.399994C15.1992 0.293907 15.2413 0.192172 15.3163 0.117157C15.3914 0.0421424 15.4931 0 15.5992 0Z" fill="white"/>
<path fill-rule="evenodd" clip-rule="evenodd" d="M19.5992 0H20.3992C20.5053 0 20.6071 0.0421424 20.6821 0.117157C20.7571 0.192172 20.7992 0.293907 20.7992 0.399994V2.79999C20.7992 2.90607 20.7571 3.00784 20.6821 3.08286C20.6071 3.15787 20.5053 3.20001 20.3992 3.20001H19.5992C19.4931 3.20001 19.3914 3.15787 19.3163 3.08286C19.2413 3.00784 19.1992 2.90607 19.1992 2.79999V0.399994C19.1992 0.293907 19.2413 0.192172 19.3163 0.117157C19.3914 0.0421424 19.4931 0 19.5992 0Z" fill="white"/>
<path fill-rule="evenodd" clip-rule="evenodd" d="M23.5992 0H24.3992C24.5053 0 24.6071 0.0421424 24.6821 0.117157C24.7571 0.192172 24.7992 0.293907 24.7992 0.399994V2.79999C24.7992 2.90607 24.7571 3.00784 24.6821 3.08286C24.6071 3.15787 24.5053 3.20001 24.3992 3.20001H23.5992C23.4931 3.20001 23.3914 3.15787 23.3163 3.08286C23.2413 3.00784 23.1992 2.90607 23.1992 2.79999V0.399994C23.1992 0.293907 23.2413 0.192172 23.3163 0.117157C23.3914 0.0421424 23.4931 0 23.5992 0Z" fill="white"/>
<path fill-rule="evenodd" clip-rule="evenodd" d="M7.59918 0H8.39923C8.50532 0 8.60705 0.0421424 8.68207 0.117157C8.75708 0.192172 8.79919 0.293907 8.79919 0.399994V2.79999C8.79919 2.90607 8.75708 3.00784 8.68207 3.08286C8.60705 3.15787 8.50532 3.20001 8.39923 3.20001H7.59918C7.4931 3.20001 7.39136 3.15787 7.31635 3.08286C7.24133 3.00784 7.19922 2.90607 7.19922 2.79999V0.399994C7.19922 0.293907 7.24133 0.192172 7.31635 0.117157C7.39136 0.0421424 7.4931 0 7.59918 0Z" fill="white"/>
<path fill-rule="evenodd" clip-rule="evenodd" d="M11.5992 0H12.3992C12.5053 0 12.6071 0.0421424 12.6821 0.117157C12.7571 0.192172 12.7992 0.293907 12.7992 0.399994V2.79999C12.7992 2.90607 12.7571 3.00784 12.6821 3.08286C12.6071 3.15787 12.5053 3.20001 12.3992 3.20001H11.5992C11.4931 3.20001 11.3914 3.15787 11.3163 3.08286C11.2413 3.00784 11.1992 2.90607 11.1992 2.79999V0.399994C11.1992 0.293907 11.2413 0.192172 11.3163 0.117157C11.3914 0.0421424 11.4931 0 11.5992 0Z" fill="white"/>
<path fill-rule="evenodd" clip-rule="evenodd" d="M31.5992 0H32.3992C32.5053 0 32.6071 0.0421424 32.6821 0.117157C32.7571 0.192172 32.7992 0.293907 32.7992 0.399994V2.79999C32.7992 2.90607 32.7571 3.00784 32.6821 3.08286C32.6071 3.15787 32.5053 3.20001 32.3992 3.20001H31.5992C31.4931 3.20001 31.3914 3.15787 31.3163 3.08286C31.2413 3.00784 31.1992 2.90607 31.1992 2.79999V0.399994C31.1992 0.293907 31.2413 0.192172 31.3163 0.117157C31.3914 0.0421424 31.4931 0 31.5992 0Z" fill="white"/>
<path fill-rule="evenodd" clip-rule="evenodd" d="M35.5992 0H36.3992C36.5053 0 36.6071 0.0421424 36.6821 0.117157C36.7571 0.192172 36.7992 0.293907 36.7992 0.399994V2.79999C36.7992 2.90607 36.7571 3.00784 36.6821 3.08286C36.6071 3.15787 36.5053 3.20001 36.3992 3.20001H35.5992C35.4931 3.20001 35.3914 3.15787 35.3163 3.08286C35.2413 3.00784 35.1992 2.90607 35.1992 2.79999V0.399994C35.1992 0.293907 35.2413 0.192172 35.3163 0.117157C35.3914 0.0421424 35.4931 0 35.5992 0Z" fill="white"/>
<path fill-rule="evenodd" clip-rule="evenodd" d="M39.5992 0H40.3992C40.5053 0 40.6071 0.0421424 40.6821 0.117157C40.7571 0.192172 40.7992 0.293907 40.7992 0.399994V2.79999C40.7992 2.90607 40.7571 3.00784 40.6821 3.08286C40.6071 3.15787 40.5053 3.20001 40.3992 3.20001H39.5992C39.4931 3.20001 39.3914 3.15787 39.3163 3.08286C39.2413 3.00784 39.1992 2.90607 39.1992 2.79999V0.399994C39.1992 0.293907 39.2413 0.192172 39.3163 0.117157C39.3914 0.0421424 39.4931 0 39.5992 0Z" fill="white"/>
<path fill-rule="evenodd" clip-rule="evenodd" d="M23.5992 0H24.3992C24.5053 0 24.6071 0.0421424 24.6821 0.117157C24.7571 0.192172 24.7992 0.293907 24.7992 0.399994V2.79999C24.7992 2.90607 24.7571 3.00784 24.6821 3.08286C24.6071 3.15787 24.5053 3.20001 24.3992 3.20001H23.5992C23.4931 3.20001 23.3914 3.15787 23.3163 3.08286C23.2413 3.00784 23.1992 2.90607 23.1992 2.79999V0.399994C23.1992 0.293907 23.2413 0.192172 23.3163 0.117157C23.3914 0.0421424 23.4931 0 23.5992 0Z" fill="white"/>
<path fill-rule="evenodd" clip-rule="evenodd" d="M27.5992 0H28.3992C28.5053 0 28.6071 0.0421424 28.6821 0.117157C28.7571 0.192172 28.7992 0.293907 28.7992 0.399994V2.79999C28.7992 2.90607 28.7571 3.00784 28.6821 3.08286C28.6071 3.15787 28.5053 3.20001 28.3992 3.20001H27.5992C27.4931 3.20001 27.3914 3.15787 27.3163 3.08286C27.2413 3.00784 27.1992 2.90607 27.1992 2.79999V0.399994C27.1992 0.293907 27.2413 0.192172 27.3163 0.117157C27.3914 0.0421424 27.4931 0 27.5992 0Z" fill="white"/>
<path d="M40.8004 4.40002C41.5421 4.40266 42.2528 4.69852 42.7773 5.22305C43.3019 5.74758 43.5977 6.45825 43.6003 7.20004V40.8C43.5977 41.5418 43.3019 42.2525 42.7773 42.777C42.2528 43.3015 41.5421 43.5974 40.8004 43.6H7.20038C6.45858 43.5974 5.74792 43.3015 5.22339 42.777C4.69886 42.2525 4.40303 41.5418 4.40039 40.8V7.20004C4.40303 6.45825 4.69886 5.74758 5.22339 5.22305C5.74792 4.69852 6.45858 4.40266 7.20038 4.40002H40.8004ZM40.8004 2.40002H7.20038C5.92734 2.40002 4.70645 2.90573 3.80627 3.80591C2.9061 4.70608 2.40039 5.927 2.40039 7.20004V40.8C2.40039 42.0731 2.9061 43.294 3.80627 44.1942C4.70645 45.0943 5.92734 45.6 7.20038 45.6H40.8004C42.0734 45.6 43.2943 45.0943 44.1945 44.1942C45.0946 43.294 45.6003 42.0731 45.6003 40.8V7.20004C45.6003 5.927 45.0946 4.70608 44.1945 3.80591C43.2943 2.90573 42.0734 2.40002 40.8004 2.40002Z" fill="white"/>
<path d="M30.4004 16.4C30.558 16.4 30.714 16.4311 30.8596 16.4914C31.0051 16.5517 31.1375 16.6401 31.2489 16.7515C31.3603 16.8629 31.4487 16.9952 31.509 17.1408C31.5693 17.2864 31.6003 17.4425 31.6003 17.6V30.4C31.6003 30.5576 31.5693 30.7137 31.509 30.8593C31.4487 31.0048 31.3603 31.1371 31.2489 31.2486C31.1375 31.36 31.0051 31.4484 30.8596 31.5087C30.714 31.569 30.558 31.6 30.4004 31.6H17.6003C17.2821 31.6 16.9769 31.4736 16.7518 31.2486C16.5268 31.0235 16.4004 30.7183 16.4004 30.4V17.6C16.4004 17.2818 16.5268 16.9765 16.7518 16.7515C16.9769 16.5265 17.2821 16.4 17.6003 16.4H30.4004ZM30.4004 14.4H17.6003C16.7516 14.4 15.9378 14.7372 15.3376 15.3373C14.7375 15.9374 14.4004 16.7513 14.4004 17.6V30.4C14.4004 31.2487 14.7375 32.0627 15.3376 32.6628C15.9378 33.2629 16.7516 33.6 17.6003 33.6H30.4004C31.2491 33.6 32.063 33.2629 32.6631 32.6628C33.2632 32.0627 33.6003 31.2487 33.6003 30.4V17.6C33.6003 16.7513 33.2632 15.9374 32.6631 15.3373C32.063 14.7372 31.2491 14.4 30.4004 14.4Z" fill="white"/>
</svg>
